<svg width="66" height="24" viewBox="0 0 66 24" fill="none" xmlns="http://www.w3.org/2000/svg">
    <path
        d="M8.75912 0L9.9854 0.70073V23.1241L8.75912 24L5.08029 23.1241L3.32847 21.7226L1.75182 18.9197L0.525548 16.6423L0 14.365V11.3869L0.875912 8.93431L1.75182 7.88321V6.83212L3.32847 3.67883L5.08029 1.40146L8.75912 0Z"
        fill="white" />
    <path
        d="M11.9124 0L10.6861 0.70073V23.1241L11.9124 24L15.5912 23.1241L17.3431 21.7226L18.9197 18.9197L20.146 16.6423L20.6715 14.365V11.3869L19.7956 8.93431L18.9197 7.88321V6.83212L17.3431 3.67883L15.5912 1.40146L11.9124 0Z"
        fill="white" />
    <path
        d="M29.0579 6.36364V18H26.6374V6.36364H29.0579ZM34.9741 18.1705C34.0764 18.1705 33.3036 17.9886 32.6559 17.625C32.012 17.2576 31.5158 16.7386 31.1673 16.0682C30.8188 15.3939 30.6446 14.5966 30.6446 13.6761C30.6446 12.7784 30.8188 11.9905 31.1673 11.3125C31.5158 10.6345 32.0063 10.1061 32.6389 9.72727C33.2752 9.34848 34.0214 9.15909 34.8775 9.15909C35.4533 9.15909 35.9892 9.25189 36.4855 9.4375C36.9855 9.61932 37.4211 9.89394 37.7923 10.2614C38.1673 10.6288 38.4589 11.0909 38.6673 11.6477C38.8756 12.2008 38.9798 12.8485 38.9798 13.5909V14.2557H31.6105V12.7557H36.7014C36.7014 12.4072 36.6256 12.0985 36.4741 11.8295C36.3226 11.5606 36.1124 11.3504 35.8434 11.1989C35.5783 11.0436 35.2696 10.9659 34.9173 10.9659C34.5499 10.9659 34.2241 11.0511 33.94 11.2216C33.6597 11.3883 33.44 11.6136 33.2809 11.8977C33.1218 12.178 33.0404 12.4905 33.0366 12.8352V14.2614C33.0366 14.6932 33.1161 15.0663 33.2752 15.3807C33.4381 15.6951 33.6673 15.9375 33.9627 16.108C34.2582 16.2784 34.6086 16.3636 35.0139 16.3636C35.2828 16.3636 35.529 16.3258 35.7525 16.25C35.976 16.1742 36.1673 16.0606 36.3264 15.9091C36.4855 15.7576 36.6067 15.572 36.69 15.3523L38.9286 15.5C38.815 16.0379 38.5821 16.5076 38.2298 16.9091C37.8813 17.3068 37.4305 17.6174 36.8775 17.8409C36.3283 18.0606 35.6938 18.1705 34.9741 18.1705ZM43.048 18.1648C42.4911 18.1648 41.9949 18.0682 41.5593 17.875C41.1237 17.678 40.779 17.3883 40.5252 17.0057C40.2752 16.6193 40.1502 16.1383 40.1502 15.5625C40.1502 15.0777 40.2392 14.6705 40.4173 14.3409C40.5953 14.0114 40.8377 13.7462 41.1446 13.5455C41.4514 13.3447 41.7999 13.1932 42.19 13.0909C42.5839 12.9886 42.9968 12.9167 43.4286 12.875C43.9362 12.822 44.3453 12.7727 44.6559 12.7273C44.9665 12.678 45.1919 12.6061 45.3321 12.5114C45.4722 12.4167 45.5423 12.2765 45.5423 12.0909V12.0568C45.5423 11.697 45.4286 11.4186 45.2014 11.2216C44.9779 11.0246 44.6597 10.9261 44.2468 10.9261C43.8112 10.9261 43.4646 11.0227 43.2071 11.2159C42.9495 11.4053 42.779 11.6439 42.6957 11.9318L40.4571 11.75C40.5707 11.2197 40.7942 10.7614 41.1275 10.375C41.4608 9.98485 41.8908 9.68561 42.4173 9.47727C42.9476 9.26515 43.5612 9.15909 44.2582 9.15909C44.743 9.15909 45.2071 9.21591 45.6502 9.32955C46.0972 9.44318 46.493 9.61932 46.8377 9.85795C47.1862 10.0966 47.4608 10.4034 47.6616 10.7784C47.8624 11.1496 47.9627 11.5947 47.9627 12.1136V18H45.6673V16.7898H45.5991C45.4589 17.0625 45.2714 17.303 45.0366 17.5114C44.8017 17.7159 44.5196 17.8769 44.19 17.9943C43.8605 18.108 43.4798 18.1648 43.048 18.1648ZM43.7411 16.4943C44.0972 16.4943 44.4116 16.4242 44.6843 16.2841C44.9571 16.1402 45.1711 15.947 45.3264 15.7045C45.4817 15.4621 45.5593 15.1875 45.5593 14.8807V13.9545C45.4836 14.0038 45.3794 14.0492 45.2468 14.0909C45.118 14.1288 44.9722 14.1648 44.8093 14.1989C44.6464 14.2292 44.4836 14.2576 44.3207 14.2841C44.1578 14.3068 44.0101 14.3277 43.8775 14.3466C43.5934 14.3883 43.3453 14.4545 43.1332 14.5455C42.9211 14.6364 42.7563 14.7595 42.6389 14.9148C42.5214 15.0663 42.4627 15.2557 42.4627 15.483C42.4627 15.8125 42.5821 16.0644 42.8207 16.2386C43.0631 16.4091 43.3699 16.4943 43.7411 16.4943ZM49.8406 18V9.27273H52.1872V10.7955H52.2781C52.4372 10.2538 52.7042 9.8447 53.0792 9.56818C53.4542 9.28788 53.886 9.14773 54.3747 9.14773C54.4959 9.14773 54.6266 9.1553 54.7667 9.17045C54.9069 9.18561 55.03 9.20644 55.136 9.23295V11.3807C55.0224 11.3466 54.8652 11.3163 54.6644 11.2898C54.4637 11.2633 54.28 11.25 54.1133 11.25C53.7572 11.25 53.4391 11.3277 53.1588 11.483C52.8822 11.6345 52.6625 11.8466 52.4997 12.1193C52.3406 12.392 52.261 12.7064 52.261 13.0625V18H49.8406ZM58.8079 12.9545V18H56.3874V9.27273H58.6943V10.8125H58.7965C58.9897 10.3049 59.3136 9.90341 59.7681 9.60795C60.2227 9.30871 60.7738 9.15909 61.4215 9.15909C62.0276 9.15909 62.556 9.29167 63.0068 9.55682C63.4575 9.82197 63.8079 10.2008 64.0579 10.6932C64.3079 11.1818 64.4329 11.7652 64.4329 12.4432V18H62.0124V12.875C62.0162 12.3409 61.8799 11.9242 61.6034 11.625C61.3268 11.322 60.9462 11.1705 60.4613 11.1705C60.1356 11.1705 59.8477 11.2405 59.5977 11.3807C59.3515 11.5208 59.1583 11.7254 59.0181 11.9943C58.8818 12.2595 58.8117 12.5795 58.8079 12.9545Z"
        fill="white" />
</svg>